<svg width="57" height="11" viewBox="0 0 57 11" fill="none" xmlns="http://www.w3.org/2000/svg">
<path d="M0.293836 10V0.843999H5.82384V2.216H1.91784V4.806H5.24984V6.178H1.91784V10H0.293836ZM10.0118 10.168C9.37714 10.168 8.80314 10.028 8.2898 9.748C7.77647 9.45867 7.37047 9.048 7.0718 8.516C6.77314 7.97467 6.6238 7.326 6.6238 6.57C6.6238 5.82333 6.77314 5.17933 7.0718 4.638C7.3798 4.09667 7.77647 3.68133 8.2618 3.392C8.74714 3.10267 9.2558 2.958 9.7878 2.958C10.4131 2.958 10.9358 3.098 11.3558 3.378C11.7758 3.64867 12.0931 4.03133 12.3078 4.526C12.5225 5.01133 12.6298 5.576 12.6298 6.22C12.6298 6.556 12.6065 6.81733 12.5598 7.004H8.1918C8.26647 7.61067 8.4858 8.082 8.8498 8.418C9.2138 8.754 9.67114 8.922 10.2218 8.922C10.5205 8.922 10.7958 8.88 11.0478 8.796C11.3091 8.70267 11.5658 8.57667 11.8178 8.418L12.3638 9.426C12.0371 9.64067 11.6731 9.818 11.2718 9.958C10.8705 10.098 10.4505 10.168 10.0118 10.168ZM8.1778 5.912H11.2298C11.2298 5.38 11.1131 4.96467 10.8798 4.666C10.6465 4.358 10.2965 4.204 9.8298 4.204C9.42847 4.204 9.06914 4.35333 8.7518 4.652C8.4438 4.94133 8.25247 5.36133 8.1778 5.912ZM17.1075 10.168C16.4728 10.168 15.8988 10.028 15.3855 9.748C14.8722 9.45867 14.4662 9.048 14.1675 8.516C13.8688 7.97467 13.7195 7.326 13.7195 6.57C13.7195 5.82333 13.8688 5.17933 14.1675 4.638C14.4755 4.09667 14.8722 3.68133 15.3575 3.392C15.8428 3.10267 16.3515 2.958 16.8835 2.958C17.5088 2.958 18.0315 3.098 18.4515 3.378C18.8715 3.64867 19.1888 4.03133 19.4035 4.526C19.6182 5.01133 19.7255 5.576 19.7255 6.22C19.7255 6.556 19.7022 6.81733 19.6555 7.004H15.2875C15.3622 7.61067 15.5815 8.082 15.9455 8.418C16.3095 8.754 16.7668 8.922 17.3175 8.922C17.6162 8.922 17.8915 8.88 18.1435 8.796C18.4048 8.70267 18.6615 8.57667 18.9135 8.418L19.4595 9.426C19.1328 9.64067 18.7688 9.818 18.3675 9.958C17.9662 10.098 17.5462 10.168 17.1075 10.168ZM15.2735 5.912H18.3255C18.3255 5.38 18.2088 4.96467 17.9755 4.666C17.7422 4.358 17.3922 4.204 16.9255 4.204C16.5242 4.204 16.1648 4.35333 15.8475 4.652C15.5395 4.94133 15.3482 5.36133 15.2735 5.912ZM23.6712 10.168C22.8125 10.168 22.1265 9.85067 21.6132 9.216C21.0999 8.58133 20.8432 7.69933 20.8432 6.57C20.8432 5.82333 20.9785 5.17933 21.2492 4.638C21.5292 4.09667 21.8932 3.68133 22.3412 3.392C22.7892 3.10267 23.2605 2.958 23.7552 2.958C24.1472 2.958 24.4785 3.028 24.7492 3.168C25.0292 3.29867 25.2999 3.48067 25.5612 3.714L25.5052 2.608V0.116H27.1152V10H25.7852L25.6732 9.258H25.6172C25.3652 9.51 25.0712 9.72467 24.7352 9.902C24.3992 10.0793 24.0445 10.168 23.6712 10.168ZM24.0632 8.838C24.5765 8.838 25.0572 8.58133 25.5052 8.068V4.862C25.2719 4.64733 25.0385 4.498 24.8052 4.414C24.5719 4.33 24.3385 4.288 24.1052 4.288C23.6665 4.288 23.2885 4.48867 22.9712 4.89C22.6632 5.282 22.5092 5.83733 22.5092 6.556C22.5092 7.29333 22.6445 7.858 22.9152 8.25C23.1859 8.642 23.5685 8.838 24.0632 8.838ZM32.4976 10.168C31.8442 10.168 31.2189 9.86933 30.6216 9.272H30.5796L30.4396 10H29.1656V0.116H30.7756V2.664L30.7336 3.812C31.0229 3.56 31.3402 3.35467 31.6856 3.196C32.0309 3.03733 32.3762 2.958 32.7216 2.958C33.5802 2.958 34.2476 3.27533 34.7236 3.91C35.1996 4.54467 35.4376 5.38933 35.4376 6.444C35.4376 7.228 35.2976 7.9 35.0176 8.46C34.7376 9.01067 34.3736 9.43533 33.9256 9.734C33.4869 10.0233 33.0109 10.168 32.4976 10.168ZM32.1616 8.838C32.6189 8.838 33.0016 8.63733 33.3096 8.236C33.6176 7.83467 33.7716 7.24667 33.7716 6.472C33.7716 5.78133 33.6549 5.24467 33.4216 4.862C33.1882 4.47933 32.8102 4.288 32.2876 4.288C31.8022 4.288 31.2982 4.54467 30.7756 5.058V8.264C31.0182 8.46933 31.2562 8.61867 31.4896 8.712C31.7322 8.796 31.9562 8.838 32.1616 8.838ZM38.5562 10.168C37.9588 10.168 37.4688 9.98133 37.0862 9.608C36.7128 9.23467 36.5262 8.74933 36.5262 8.152C36.5262 7.41467 36.8482 6.84533 37.4922 6.444C38.1362 6.03333 39.1628 5.75333 40.5722 5.604C40.5628 5.24 40.4648 4.92733 40.2782 4.666C40.1008 4.39533 39.7788 4.26 39.3122 4.26C38.9762 4.26 38.6448 4.32533 38.3182 4.456C38.0008 4.58667 37.6882 4.74533 37.3802 4.932L36.7922 3.854C37.1748 3.61133 37.6042 3.40133 38.0802 3.224C38.5655 3.04667 39.0788 2.958 39.6202 2.958C40.4788 2.958 41.1182 3.21467 41.5382 3.728C41.9675 4.232 42.1822 4.96467 42.1822 5.926V10H40.8522L40.7402 9.244H40.6842C40.3762 9.50533 40.0448 9.72467 39.6902 9.902C39.3448 10.0793 38.9668 10.168 38.5562 10.168ZM39.0742 8.908C39.3542 8.908 39.6062 8.84267 39.8302 8.712C40.0635 8.572 40.3108 8.38533 40.5722 8.152V6.612C39.6388 6.73333 38.9902 6.91533 38.6262 7.158C38.2622 7.39133 38.0802 7.68067 38.0802 8.026C38.0802 8.334 38.1735 8.558 38.3602 8.698C38.5468 8.838 38.7848 8.908 39.0742 8.908ZM46.9789 10.168C46.3536 10.168 45.7889 10.028 45.2849 9.748C44.7902 9.45867 44.3936 9.048 44.0949 8.516C43.8056 7.97467 43.6609 7.326 43.6609 6.57C43.6609 5.80467 43.8196 5.156 44.1369 4.624C44.4542 4.08267 44.8742 3.672 45.3969 3.392C45.9289 3.10267 46.4982 2.958 47.1049 2.958C47.5436 2.958 47.9262 3.03267 48.2529 3.182C48.5796 3.33133 48.8689 3.51333 49.1209 3.728L48.3369 4.778C48.1596 4.61933 47.9776 4.498 47.7909 4.414C47.6042 4.32067 47.4036 4.274 47.1889 4.274C46.6382 4.274 46.1856 4.484 45.8309 4.904C45.4856 5.324 45.3129 5.87933 45.3129 6.57C45.3129 7.25133 45.4809 7.802 45.8169 8.222C46.1622 8.642 46.6056 8.852 47.1469 8.852C47.4176 8.852 47.6696 8.796 47.9029 8.684C48.1456 8.56267 48.3649 8.42267 48.5609 8.264L49.2189 9.328C48.9016 9.608 48.5469 9.818 48.1549 9.958C47.7629 10.098 47.3709 10.168 46.9789 10.168ZM50.5757 10V0.116H52.1577V6.29H52.1997L54.7477 3.126H56.5117L54.1597 5.926L56.7497 10H54.9997L53.2357 7.018L52.1577 8.25V10H50.5757Z" fill="#596976"/>
</svg>
