<svg width="137" height="13" viewBox="0 0 137 13" fill="none" xmlns="http://www.w3.org/2000/svg">
<path d="M5.27231 12.176C4.57898 12.176 3.91765 12.0533 3.28831 11.808C2.66965 11.552 2.12031 11.1947 1.64031 10.736C1.16031 10.2667 0.781646 9.70133 0.504313 9.04C0.237646 8.37867 0.104313 7.64267 0.104313 6.832C0.104313 6.02133 0.237646 5.29067 0.504313 4.64C0.781646 3.98933 1.16031 3.43467 1.64031 2.976C2.12031 2.51733 2.66965 2.16533 3.28831 1.92C3.91765 1.67467 4.57898 1.552 5.27231 1.552C5.96565 1.552 6.62165 1.67467 7.24031 1.92C7.86965 2.16533 8.42431 2.51733 8.90431 2.976C9.38431 3.43467 9.75765 3.98933 10.0243 4.64C10.3016 5.29067 10.4403 6.02133 10.4403 6.832C10.4403 7.64267 10.3016 8.37867 10.0243 9.04C9.75765 9.70133 9.38431 10.2667 8.90431 10.736C8.42431 11.1947 7.86965 11.552 7.24031 11.808C6.62165 12.0533 5.96565 12.176 5.27231 12.176ZM5.27231 11.504C6.08298 11.504 6.81898 11.312 7.48031 10.928C8.15231 10.5333 8.68565 9.984 9.08031 9.28C9.48565 8.576 9.68831 7.76 9.68831 6.832C9.68831 5.904 9.48565 5.09333 9.08031 4.4C8.68565 3.70667 8.15231 3.168 7.48031 2.784C6.81898 2.4 6.08298 2.208 5.27231 2.208C4.47231 2.208 3.73631 2.4 3.06431 2.784C2.39231 3.168 1.85365 3.70667 1.44831 4.4C1.05365 5.09333 0.856313 5.904 0.856313 6.832C0.856313 7.76 1.05365 8.576 1.44831 9.28C1.85365 9.984 2.39231 10.5333 3.06431 10.928C3.73631 11.312 4.47231 11.504 5.27231 11.504ZM5.40031 10C4.86698 10 4.37631 9.87733 3.92831 9.632C3.49098 9.376 3.13898 9.01333 2.87231 8.544C2.61631 8.064 2.48831 7.49333 2.48831 6.832C2.48831 6.21333 2.62698 5.68 2.90431 5.232C3.18165 4.77333 3.54431 4.42133 3.99231 4.176C4.45098 3.93067 4.93631 3.808 5.44831 3.808C5.89631 3.808 6.27498 3.89867 6.58431 4.08C6.90431 4.25067 7.19231 4.464 7.44831 4.72L6.88831 5.344C6.67498 5.13067 6.45631 4.97067 6.23231 4.864C6.01898 4.74667 5.77365 4.688 5.49631 4.688C4.90965 4.688 4.43498 4.89067 4.07231 5.296C3.72031 5.69067 3.54431 6.20267 3.54431 6.832C3.54431 7.536 3.71498 8.096 4.05631 8.512C4.40831 8.91733 4.87231 9.12 5.44831 9.12C5.78965 9.12 6.08831 9.056 6.34431 8.928C6.60031 8.78933 6.84565 8.61867 7.08031 8.416L7.56031 9.088C7.26165 9.344 6.94698 9.56267 6.61631 9.744C6.28565 9.91467 5.88031 10 5.40031 10ZM15.8697 12V1.504H17.1977V6.768H17.2457L21.6137 1.504H23.1177L19.8377 5.504L23.6297 12H22.1417L19.0057 6.544L17.1977 8.672V12H15.8697ZM25.0073 12V4.224H26.0953L26.2073 5.632H26.2553C26.522 5.14133 26.8473 4.752 27.2313 4.464C27.6153 4.176 28.026 4.032 28.4633 4.032C28.7726 4.032 29.05 4.08533 29.2953 4.192L29.0393 5.344C28.9113 5.30133 28.794 5.26933 28.6873 5.248C28.5806 5.22667 28.4473 5.216 28.2873 5.216C27.9566 5.216 27.61 5.34933 27.2473 5.616C26.8953 5.88267 26.586 6.34667 26.3193 7.008V12H25.0073ZM31.9556 12.192C31.3049 12.192 30.7609 12 30.3236 11.616C29.8969 11.2213 29.6836 10.6773 29.6836 9.984C29.6836 9.13067 30.0622 8.48 30.8196 8.032C31.5876 7.57333 32.7982 7.25333 34.4516 7.072C34.4516 6.74133 34.4036 6.42667 34.3076 6.128C34.2222 5.82933 34.0622 5.58933 33.8276 5.408C33.6036 5.216 33.2782 5.12 32.8516 5.12C32.4036 5.12 31.9822 5.20533 31.5876 5.376C31.1929 5.54667 30.8409 5.73867 30.5316 5.952L30.0196 5.04C30.3822 4.80533 30.8249 4.58133 31.3476 4.368C31.8809 4.144 32.4569 4.032 33.0756 4.032C34.0249 4.032 34.7129 4.32533 35.1396 4.912C35.5662 5.488 35.7796 6.26133 35.7796 7.232V12H34.6916L34.5796 11.072H34.5316C34.1689 11.3707 33.7689 11.632 33.3316 11.856C32.9049 12.08 32.4462 12.192 31.9556 12.192ZM32.3396 11.136C32.7129 11.136 33.0649 11.0453 33.3956 10.864C33.7262 10.6827 34.0782 10.4267 34.4516 10.096V7.936C33.1609 8.096 32.2542 8.336 31.7316 8.656C31.2196 8.976 30.9636 9.38667 30.9636 9.888C30.9636 10.3253 31.0969 10.6453 31.3636 10.848C31.6302 11.04 31.9556 11.136 32.3396 11.136ZM38.4501 12V5.296H37.3941V4.304L38.4501 4.224V2.992C38.4501 2.20267 38.6314 1.57867 38.9941 1.12C39.3674 0.650666 39.9434 0.415999 40.7221 0.415999C40.9674 0.415999 41.2021 0.442666 41.4261 0.495999C41.6501 0.538666 41.8474 0.597333 42.0181 0.672L41.7301 1.68C41.4421 1.552 41.1487 1.488 40.8501 1.488C40.1247 1.488 39.7621 1.98933 39.7621 2.992V4.224H42.6101L42.7701 2.048H43.8581V4.224H45.9701V5.296H43.8581V9.616C43.8581 10.096 43.9487 10.4693 44.1301 10.736C44.3114 10.992 44.6261 11.12 45.0741 11.12C45.2127 11.12 45.3621 11.0987 45.5221 11.056C45.6821 11.0027 45.8261 10.9547 45.9541 10.912L46.2101 11.904C45.9967 11.9787 45.7621 12.0427 45.5061 12.096C45.2607 12.16 45.0154 12.192 44.7701 12.192C43.9381 12.192 43.3567 11.952 43.0261 11.472C42.7061 10.992 42.5461 10.368 42.5461 9.6V5.296H39.7621V12H38.4501ZM46.6482 8.496V7.488H50.3282V8.496H46.6482ZM56.2729 12.192C55.3983 12.192 54.6196 11.968 53.9369 11.52C53.2649 11.072 52.7369 10.4373 52.3529 9.616C51.9796 8.79467 51.7929 7.824 51.7929 6.704C51.7929 5.584 51.9796 4.624 52.3529 3.824C52.7369 3.01333 53.2649 2.39467 53.9369 1.968C54.6196 1.53067 55.3983 1.312 56.2729 1.312C57.1583 1.312 57.9369 1.53067 58.6089 1.968C59.2809 2.39467 59.8089 3.01333 60.1929 3.824C60.5769 4.624 60.7689 5.584 60.7689 6.704C60.7689 7.824 60.5769 8.79467 60.1929 9.616C59.8089 10.4373 59.2809 11.072 58.6089 11.52C57.9369 11.968 57.1583 12.192 56.2729 12.192ZM56.2729 11.024C56.9023 11.024 57.4463 10.848 57.9049 10.496C58.3743 10.1333 58.7369 9.632 58.9929 8.992C59.2489 8.34133 59.3769 7.57867 59.3769 6.704C59.3769 5.40267 59.0943 4.37333 58.5289 3.616C57.9636 2.85867 57.2116 2.48 56.2729 2.48C55.3343 2.48 54.5823 2.85867 54.0169 3.616C53.4516 4.37333 53.1689 5.40267 53.1689 6.704C53.1689 7.57867 53.2969 8.34133 53.5529 8.992C53.8089 9.632 54.1716 10.1333 54.6409 10.496C55.1103 10.848 55.6543 11.024 56.2729 11.024ZM62.2419 8.496V7.488H65.9219V8.496H62.2419ZM67.9947 12V1.504H69.5947L71.6107 7.104C71.7387 7.46667 71.8614 7.83467 71.9787 8.208C72.1067 8.57067 72.2347 8.93333 72.3627 9.296H72.4267C72.5547 8.93333 72.672 8.57067 72.7787 8.208C72.896 7.83467 73.0187 7.46667 73.1467 7.104L75.1307 1.504H76.7467V12H75.4987V6.224C75.4987 5.75467 75.52 5.23733 75.5627 4.672C75.6054 4.096 75.6427 3.57867 75.6747 3.12H75.6107L74.7787 5.504L72.7947 10.944H71.9147L69.9307 5.504L69.0987 3.12H69.0347C69.0667 3.57867 69.0987 4.096 69.1307 4.672C69.1734 5.23733 69.1947 5.75467 69.1947 6.224V12H67.9947ZM81.2837 12.192C80.633 12.192 80.089 12 79.6517 11.616C79.225 11.2213 79.0117 10.6773 79.0117 9.984C79.0117 9.13067 79.3904 8.48 80.1477 8.032C80.9157 7.57333 82.1264 7.25333 83.7797 7.072C83.7797 6.74133 83.7317 6.42667 83.6357 6.128C83.5504 5.82933 83.3904 5.58933 83.1557 5.408C82.9317 5.216 82.6064 5.12 82.1797 5.12C81.7317 5.12 81.3104 5.20533 80.9157 5.376C80.521 5.54667 80.169 5.73867 79.8597 5.952L79.3477 5.04C79.7104 4.80533 80.153 4.58133 80.6757 4.368C81.209 4.144 81.785 4.032 82.4037 4.032C83.353 4.032 84.041 4.32533 84.4677 4.912C84.8944 5.488 85.1077 6.26133 85.1077 7.232V12H84.0197L83.9077 11.072H83.8597C83.497 11.3707 83.097 11.632 82.6597 11.856C82.233 12.08 81.7744 12.192 81.2837 12.192ZM81.6677 11.136C82.041 11.136 82.393 11.0453 82.7237 10.864C83.0544 10.6827 83.4064 10.4267 83.7797 10.096V7.936C82.489 8.096 81.5824 8.336 81.0597 8.656C80.5477 8.976 80.2917 9.38667 80.2917 9.888C80.2917 10.3253 80.425 10.6453 80.6917 10.848C80.9584 11.04 81.2837 11.136 81.6677 11.136ZM89.7834 12.192C88.9514 12.192 88.3701 11.952 88.0394 11.472C87.7194 10.992 87.5594 10.368 87.5594 9.6V5.296H86.4074V4.304L87.6234 4.224L87.7834 2.048H88.8874V4.224H90.9834V5.296H88.8874V9.616C88.8874 10.096 88.9728 10.4693 89.1434 10.736C89.3248 10.992 89.6394 11.12 90.0874 11.12C90.2261 11.12 90.3754 11.0987 90.5354 11.056C90.6954 11.0027 90.8394 10.9547 90.9674 10.912L91.2234 11.904C91.0101 11.9787 90.7754 12.0427 90.5194 12.096C90.2741 12.16 90.0288 12.192 89.7834 12.192ZM92.7417 12V4.224H94.0537V12H92.7417ZM93.4137 2.624C93.1577 2.624 92.9444 2.54933 92.7737 2.4C92.6137 2.24 92.5337 2.02667 92.5337 1.76C92.5337 1.504 92.6137 1.296 92.7737 1.136C92.9444 0.976 93.1577 0.896 93.4137 0.896C93.6697 0.896 93.8777 0.976 94.0377 1.136C94.2084 1.296 94.2937 1.504 94.2937 1.76C94.2937 2.02667 94.2084 2.24 94.0377 2.4C93.8777 2.54933 93.6697 2.624 93.4137 2.624ZM99.7512 12.192C99.0685 12.192 98.4499 12.032 97.8952 11.712C97.3405 11.392 96.9032 10.928 96.5832 10.32C96.2632 9.712 96.1032 8.98133 96.1032 8.128C96.1032 7.25333 96.2739 6.512 96.6152 5.904C96.9672 5.296 97.4259 4.832 97.9912 4.512C98.5672 4.192 99.1859 4.032 99.8472 4.032C100.359 4.032 100.797 4.12267 101.159 4.304C101.533 4.48533 101.853 4.69867 102.119 4.944L101.447 5.808C101.223 5.60533 100.983 5.44 100.727 5.312C100.482 5.184 100.205 5.12 99.8952 5.12C99.4259 5.12 99.0045 5.248 98.6312 5.504C98.2685 5.74933 97.9805 6.10133 97.7672 6.56C97.5645 7.008 97.4632 7.53067 97.4632 8.128C97.4632 9.01333 97.6819 9.73333 98.1192 10.288C98.5672 10.832 99.1485 11.104 99.8632 11.104C100.226 11.104 100.562 11.0293 100.871 10.88C101.181 10.72 101.453 10.5333 101.687 10.32L102.263 11.2C101.911 11.5093 101.522 11.7547 101.095 11.936C100.669 12.1067 100.221 12.192 99.7512 12.192ZM106.507 12V11.216C107.531 10.192 108.401 9.296 109.115 8.528C109.83 7.74933 110.374 7.05067 110.747 6.432C111.121 5.80267 111.307 5.216 111.307 4.672C111.307 4.08533 111.147 3.60533 110.827 3.232C110.507 2.85867 110.022 2.672 109.371 2.672C108.945 2.672 108.55 2.79467 108.187 3.04C107.825 3.27467 107.494 3.56267 107.195 3.904L106.443 3.152C106.87 2.68267 107.323 2.30933 107.803 2.032C108.294 1.744 108.87 1.6 109.531 1.6C110.481 1.6 111.227 1.87733 111.771 2.432C112.315 2.976 112.587 3.70133 112.587 4.608C112.587 5.248 112.406 5.89867 112.043 6.56C111.691 7.21067 111.201 7.89867 110.571 8.624C109.953 9.33867 109.238 10.1173 108.427 10.96C108.705 10.9387 108.993 10.9173 109.291 10.896C109.59 10.8747 109.873 10.864 110.139 10.864H113.099V12H106.507ZM117.804 12.192C116.78 12.192 115.975 11.7333 115.388 10.816C114.812 9.888 114.524 8.57067 114.524 6.864C114.524 5.14667 114.812 3.84 115.388 2.944C115.975 2.048 116.78 1.6 117.804 1.6C118.818 1.6 119.612 2.048 120.188 2.944C120.775 3.84 121.068 5.14667 121.068 6.864C121.068 8.57067 120.775 9.888 120.188 10.816C119.612 11.7333 118.818 12.192 117.804 12.192ZM117.804 11.136C118.402 11.136 118.882 10.8 119.244 10.128C119.607 9.44533 119.788 8.35733 119.788 6.864C119.788 5.37067 119.607 4.29867 119.244 3.648C118.882 2.98667 118.402 2.656 117.804 2.656C117.207 2.656 116.722 2.98667 116.348 3.648C115.986 4.29867 115.804 5.37067 115.804 6.864C115.804 8.35733 115.986 9.44533 116.348 10.128C116.722 10.8 117.207 11.136 117.804 11.136ZM122.413 12V11.216C123.437 10.192 124.307 9.296 125.021 8.528C125.736 7.74933 126.28 7.05067 126.653 6.432C127.027 5.80267 127.213 5.216 127.213 4.672C127.213 4.08533 127.053 3.60533 126.733 3.232C126.413 2.85867 125.928 2.672 125.277 2.672C124.851 2.672 124.456 2.79467 124.093 3.04C123.731 3.27467 123.4 3.56267 123.101 3.904L122.349 3.152C122.776 2.68267 123.229 2.30933 123.709 2.032C124.2 1.744 124.776 1.6 125.437 1.6C126.387 1.6 127.133 1.87733 127.677 2.432C128.221 2.976 128.493 3.70133 128.493 4.608C128.493 5.248 128.312 5.89867 127.949 6.56C127.597 7.21067 127.107 7.89867 126.477 8.624C125.859 9.33867 125.144 10.1173 124.333 10.96C124.611 10.9387 124.899 10.9173 125.197 10.896C125.496 10.8747 125.779 10.864 126.045 10.864H129.005V12H122.413ZM130.367 12V11.216C131.391 10.192 132.26 9.296 132.975 8.528C133.689 7.74933 134.233 7.05067 134.607 6.432C134.98 5.80267 135.167 5.216 135.167 4.672C135.167 4.08533 135.007 3.60533 134.687 3.232C134.367 2.85867 133.881 2.672 133.231 2.672C132.804 2.672 132.409 2.79467 132.047 3.04C131.684 3.27467 131.353 3.56267 131.055 3.904L130.303 3.152C130.729 2.68267 131.183 2.30933 131.663 2.032C132.153 1.744 132.729 1.6 133.391 1.6C134.34 1.6 135.087 1.87733 135.631 2.432C136.175 2.976 136.447 3.70133 136.447 4.608C136.447 5.248 136.265 5.89867 135.903 6.56C135.551 7.21067 135.06 7.89867 134.431 8.624C133.812 9.33867 133.097 10.1173 132.287 10.96C132.564 10.9387 132.852 10.9173 133.151 10.896C133.449 10.8747 133.732 10.864 133.999 10.864H136.959V12H130.367Z" fill="#0F4979"/>
</svg>
